<svg width="343" height="107" viewBox="0 0 343 107" fill="none" xmlns="http://www.w3.org/2000/svg">
<path d="M52.4401 93.625H14.3213V55.5063H52.4401V93.625ZM94.5713 93.625H56.4526V55.5063H94.5713V93.625ZM52.4401 51.4938H14.3213V13.375H52.4401V51.4938ZM94.5713 51.4938H56.4526V13.375H94.5713V51.4938Z" fill="black" fill-opacity="0.5"/>
<path d="M208.428 46.1705H171.304V61.5562H192.668C190.68 71.3333 182.356 76.9508 171.304 76.9508C168.211 76.9561 165.148 76.3508 162.29 75.1696C159.432 73.9884 156.835 72.2546 154.648 70.0676C152.462 67.8806 150.728 65.2835 149.548 62.4251C148.367 59.5667 147.762 56.5034 147.768 53.4108C147.763 50.3186 148.368 47.2557 149.549 44.3979C150.73 41.54 152.463 38.9434 154.65 36.7569C156.836 34.5704 159.433 32.8369 162.291 31.656C165.149 30.4751 168.212 29.87 171.304 29.8753C176.917 29.8753 181.99 31.8681 185.972 35.1272L197.563 23.54C190.501 17.383 181.447 13.5845 171.304 13.5845C166.069 13.5692 160.883 14.589 156.043 16.5853C151.204 18.5816 146.807 21.5149 143.105 25.2166C139.403 28.9182 136.47 33.3152 134.474 38.1546C132.478 42.994 131.458 48.1803 131.473 53.4153C131.457 58.6504 132.477 63.837 134.473 68.6766C136.469 73.5163 139.402 77.9135 143.104 81.6153C146.806 85.3171 151.203 88.2504 156.042 90.2464C160.882 92.2425 166.069 93.2619 171.304 93.246C191.219 93.246 209.329 78.7609 209.329 53.4153C209.329 51.0613 208.968 48.5245 208.428 46.1705Z" fill="black" fill-opacity="0.5"/>
<path d="M318.647 50.6021C317.465 50.5916 316.286 50.4722 315.125 50.2454C314.009 50.0111 312.919 49.6677 311.871 49.22L311.113 49.0416H310.578C310.132 49.0416 309.909 49.3537 309.909 49.9779V51.4491C309.846 51.728 309.846 52.0174 309.909 52.2962C310.133 52.6629 310.458 52.9571 310.845 53.1433C311.918 53.6798 313.057 54.0697 314.234 54.3025C315.694 54.6517 317.19 54.8312 318.692 54.8375C320.203 54.8828 321.71 54.6718 323.15 54.2133C324.34 53.9011 325.45 53.3388 326.405 52.5637C327.308 51.8659 328.052 50.9846 328.59 49.9779C329.101 48.8906 329.36 47.7018 329.347 46.5004C329.364 45.0098 328.894 43.5544 328.01 42.3541C326.821 41.0034 325.276 40.0146 323.552 39.5008L319.316 38.1633C318.133 37.8571 317.025 37.3107 316.062 36.5583C315.779 36.2874 315.555 35.962 315.401 35.6019C315.248 35.2417 315.169 34.8543 315.17 34.4629C315.138 33.9339 315.25 33.4061 315.493 32.9352C315.736 32.4644 316.102 32.068 316.552 31.7879C317.786 31.1895 319.151 30.9134 320.52 30.9854C322.471 30.938 324.407 31.3344 326.182 32.1446C326.545 32.3296 326.937 32.4503 327.341 32.5012C327.787 32.5012 328.01 32.1446 328.01 31.5204V29.9154C328.023 29.5688 327.93 29.2264 327.742 28.9346C327.504 28.6311 327.199 28.3869 326.851 28.2212C326.453 28.0023 326.035 27.8231 325.602 27.6862C325.048 27.4904 324.482 27.3266 323.908 27.1958L321.947 26.75C321.219 26.6974 320.489 26.6974 319.762 26.75C318.511 26.7284 317.264 26.8937 316.062 27.2404C314.936 27.5689 313.879 28.0975 312.941 28.8008C312.07 29.4359 311.354 30.2587 310.845 31.2083C310.298 32.2207 310.022 33.357 310.043 34.5075C310.016 36.117 310.535 37.6883 311.514 38.9658C312.738 40.4404 314.389 41.4995 316.24 41.9975L320.698 43.335C321.801 43.5927 322.826 44.1127 323.685 44.8508C324.219 45.4159 324.508 46.1692 324.488 46.9462C324.497 47.5102 324.358 48.0668 324.084 48.5599C323.81 49.053 323.411 49.4652 322.927 49.755C321.604 50.4206 320.125 50.7135 318.647 50.6021V50.6021ZM292.745 28.9791C292.676 28.5421 292.473 28.1372 292.165 27.82C291.831 27.5741 291.418 27.4626 291.006 27.5079H288.554C288.144 27.4851 287.738 27.5945 287.395 27.82C287.07 28.1251 286.864 28.5361 286.815 28.9791L282.357 48.5958L277.274 28.9791C277.193 28.5368 276.975 28.1312 276.65 27.82C276.65 27.82 276.07 27.5079 275.491 27.5079H272.593C272.102 27.5079 271.88 27.7754 271.88 28.2658C271.923 28.6759 272.013 29.0797 272.147 29.4696L279.102 52.3854C279.192 52.7931 279.375 53.1744 279.637 53.5C279.987 53.7043 280.392 53.7976 280.796 53.7675H283.337C283.756 53.7958 284.174 53.7029 284.541 53.5C284.822 53.1527 285.007 52.7375 285.076 52.2962L289.535 33.2146L293.993 52.3408C294.03 52.7779 294.219 53.1882 294.528 53.5C294.879 53.7451 295.306 53.8558 295.732 53.8121H298.273C298.668 53.8315 299.06 53.722 299.387 53.5C299.723 53.197 299.943 52.7876 300.012 52.3408L307.19 29.425C307.216 29.1879 307.216 28.9487 307.19 28.7116C307.207 28.5486 307.207 28.3842 307.19 28.2212C307.204 28.1182 307.195 28.0132 307.162 27.9144C307.13 27.8156 307.074 27.7258 307.001 27.6522C306.927 27.5786 306.837 27.5232 306.738 27.4904C306.64 27.4576 306.535 27.4484 306.432 27.4633H303.667C303.258 27.4466 302.854 27.5555 302.508 27.7754C302.234 28.1155 302.036 28.5109 301.929 28.9346L297.47 49.0416L292.745 28.9791ZM260.778 38.4754C259.729 38.3377 258.672 38.2632 257.613 38.2525C254.989 38.1146 252.405 38.9389 250.346 40.5708C249.469 41.3218 248.773 42.2612 248.31 43.3188C247.846 44.3764 247.628 45.5249 247.671 46.6787C247.619 47.7295 247.786 48.7795 248.162 49.762C248.539 50.7445 249.115 51.6379 249.855 52.3854C250.651 53.1196 251.585 53.6872 252.604 54.0548C253.622 54.4223 254.704 54.5823 255.785 54.5254C257.487 54.5743 259.177 54.2296 260.723 53.5182C262.27 52.8067 263.631 51.7477 264.702 50.4237C264.962 51.0214 265.26 51.6021 265.593 52.1625C265.911 52.6523 266.269 53.1146 266.663 53.5446C266.771 53.6537 266.9 53.7404 267.041 53.7996C267.183 53.8588 267.335 53.8892 267.488 53.8892C267.642 53.8892 267.793 53.8588 267.935 53.7996C268.077 53.7404 268.205 53.6537 268.313 53.5446L270.185 52.2962C270.342 52.1994 270.475 52.0693 270.575 51.9152C270.675 51.7611 270.74 51.5867 270.765 51.4046C270.837 51.1722 270.837 50.9235 270.765 50.6912C270.404 50.0158 270.091 49.3156 269.829 48.5958C269.59 47.7251 269.485 46.8231 269.517 45.9208V36.5137C269.623 35.1925 269.461 33.8635 269.039 32.6068C268.618 31.3501 267.946 30.1919 267.065 29.2021C265.931 28.2494 264.615 27.54 263.196 27.1182C261.777 26.6963 260.286 26.571 258.817 26.75C257.312 26.7494 255.813 26.9442 254.358 27.3296C253.063 27.6307 251.806 28.0795 250.613 28.6671C250.299 28.8061 250.023 29.0205 249.811 29.2912C249.702 29.6244 249.702 29.9835 249.811 30.3166V31.7879C249.811 32.4121 249.811 32.6796 250.435 32.6796C250.597 32.7145 250.764 32.7145 250.925 32.6796L251.951 32.3229C252.856 31.8784 253.796 31.5057 254.76 31.2083C255.809 30.9452 256.887 30.8104 257.97 30.8071C259.693 30.6265 261.419 31.122 262.785 32.1891C263.846 33.5227 264.342 35.2195 264.167 36.915V39.0996L260.778 38.4754ZM264.256 42.4879V43.6916C264.259 44.5632 264.154 45.4318 263.944 46.2775C263.756 46.9875 263.404 47.6439 262.918 48.1946C262.175 49.0684 261.202 49.717 260.11 50.0671C259.135 50.4099 258.111 50.5906 257.078 50.6021C256.512 50.6441 255.944 50.571 255.408 50.3871C254.871 50.2032 254.378 49.9123 253.957 49.5321C253.567 49.1091 253.269 48.6086 253.085 48.0632C252.901 47.5179 252.833 46.9398 252.887 46.3666C252.85 45.7261 252.964 45.0859 253.22 44.4975C253.475 43.909 253.865 43.3887 254.358 42.9783C255.658 42.0675 257.235 41.6415 258.817 41.7746H261.581C262.485 41.9633 263.378 42.2014 264.256 42.4879V42.4879ZM323.15 66.875C312.492 71.3592 301.053 73.6926 289.49 73.7408C274.013 73.7437 258.802 69.7181 245.352 62.06C244.282 61.3912 243.435 62.5058 244.372 63.3529C256.477 74.2965 272.235 80.3228 288.554 80.25C301.423 80.2817 314.004 76.4451 324.666 69.2379C326.182 67.8558 324.8 66.0279 323.15 66.875Z" fill="black" fill-opacity="0.5"/>
<path d="M316.998 62.6842C316.151 63.3084 316.285 64.1554 317.221 64.0217C320.386 63.6204 327.386 62.8179 328.634 64.4229C329.882 66.0279 327.252 72.5817 326.048 75.5242C325.692 76.4159 326.494 76.7725 327.297 76.1038C329.327 74.2349 330.883 71.9097 331.836 69.3204C332.79 66.7311 333.113 63.9521 332.78 61.2129C330.218 60.2041 327.455 59.8116 324.714 60.0672C321.972 60.3227 319.329 61.2192 316.998 62.6842V62.6842Z" fill="black" fill-opacity="0.5"/>
</svg>
